<?xml version="1.0" encoding="utf-8"?>
<!-- Generator: Adobe Illustrator 16.0.0, SVG Export Plug-In . SVG Version: 6.00 Build 0)  -->
<!DOCTYPE svg PUBLIC "-//W3C//DTD SVG 1.1//EN" "http://www.w3.org/Graphics/SVG/1.1/DTD/svg11.dtd">
<svg version="1.1" id="Layer_1" xmlns="http://www.w3.org/2000/svg" xmlns:xlink="http://www.w3.org/1999/xlink" x="0px" y="0px"
	 width="190px" height="154px" viewBox="-18 0 190 154" enable-background="new -18 0 190 154" xml:space="preserve">
<g>
	<path fill="#C6C6C5" d="M138.422,0.193H15.582c-8.493,0-15.383,6.909-15.383,15.402v122.829c0,8.479,6.891,15.383,15.383,15.383
		h122.84c8.477,0,15.379-6.904,15.379-15.383V15.596C153.801,7.103,146.898,0.193,138.422,0.193L138.422,0.193z M46.286,130.771
		h-23.07v-69.14h23.069L46.286,130.771L46.286,130.771z M34.766,48.596c-7.688,0-13.831-6.188-13.831-13.813
		c0-7.697,6.142-13.838,13.831-13.838c7.658,0,13.8,6.141,13.8,13.838C48.566,42.408,42.424,48.596,34.766,48.596L34.766,48.596z
		 M130.768,130.771h-23.051V90.047c0-6.158-5.377-11.502-11.52-11.502c-6.156,0-11.514,5.344-11.514,11.502v40.727H61.609V61.632
		h23.075v9.221c3.825-6.164,12.262-10.772,19.188-10.772c14.598,0,26.896,12.301,26.896,26.901V130.771L130.768,130.771z"/>
</g>
</svg>
