<?xml version="1.0" encoding="utf-8"?>
<!-- Generator: Adobe Illustrator 16.0.0, SVG Export Plug-In . SVG Version: 6.00 Build 0)  -->
<!DOCTYPE svg PUBLIC "-//W3C//DTD SVG 1.1//EN" "http://www.w3.org/Graphics/SVG/1.1/DTD/svg11.dtd">
<svg version="1.1" id="Layer_1" xmlns="http://www.w3.org/2000/svg" xmlns:xlink="http://www.w3.org/1999/xlink" x="0px" y="0px"
	 width="187px" height="153px" viewBox="0 0 187 153" enable-background="new 0 0 187 153" xml:space="preserve">
<path fill="#C6C6C5" d="M187.299,18.333c-6.91,3.103-14.34,5.142-22.094,6.112c7.934-4.791,14.039-12.338,16.912-21.319
	c-7.434,4.397-15.648,7.594-24.426,9.319c-7.029-7.47-17.053-12.169-28.119-12.169c-21.23,0-38.482,17.273-38.482,38.51
	c0,3.005,0.34,5.941,1.002,8.752C60.117,45.949,31.737,30.626,12.754,7.326c-3.292,5.705-5.2,12.328-5.2,19.359
	c0,13.364,6.789,25.148,17.114,32.034c-6.286-0.191-12.233-1.931-17.417-4.809v0.473c0,18.666,13.256,34.231,30.872,37.754
	c-3.234,0.858-6.627,1.354-10.142,1.354c-2.47,0-4.902-0.26-7.252-0.698c4.903,15.3,19.123,26.433,35.953,26.733
	c-13.157,10.326-29.766,16.462-47.801,16.462c-3.093,0-6.168-0.176-9.181-0.536c17.033,10.91,37.259,17.271,59.012,17.271
	c70.799,0,109.483-58.626,109.483-109.47c0-1.681-0.041-3.331-0.1-4.997C175.588,32.841,182.117,26.064,187.299,18.333z"/>
</svg>
