<?xml version="1.0" encoding="utf-8"?>
<!-- Generator: Adobe Illustrator 16.0.0, SVG Export Plug-In . SVG Version: 6.00 Build 0)  -->
<!DOCTYPE svg PUBLIC "-//W3C//DTD SVG 1.1//EN" "http://www.w3.org/Graphics/SVG/1.1/DTD/svg11.dtd">
<svg version="1.1" id="Layer_1" xmlns="http://www.w3.org/2000/svg" xmlns:xlink="http://www.w3.org/1999/xlink" x="0px" y="0px"
	 width="190px" height="154px" viewBox="-35.86 0 190 154" enable-background="new -35.86 0 190 154" xml:space="preserve">
<path fill="#C6C6C5" d="M153.791,18.684c-6.981,3.135-14.487,5.195-22.319,6.175c8.015-4.839,14.182-12.465,17.086-21.536
	c-7.512,4.441-15.809,7.671-24.677,9.414c-7.1-7.546-17.227-12.292-28.405-12.292C74.027,0.444,56.6,17.894,56.6,39.348
	c0,3.035,0.344,6.001,1.013,8.841c-32.3-1.605-60.971-17.085-80.147-40.622c-3.326,5.762-5.252,12.454-5.252,19.556
	c0,13.501,6.856,25.406,17.289,32.36c-6.351-0.192-12.358-1.949-17.596-4.856v0.478c0,18.857,13.392,34.58,31.187,38.139
	c-3.267,0.866-6.693,1.367-10.245,1.367c-2.494,0-4.952-0.264-7.326-0.707c4.954,15.46,19.317,26.706,36.32,27.009
	c-13.292,10.43-30.069,16.629-48.289,16.629c-3.125,0-6.231-0.178-9.273-0.542c17.206,11.018,37.638,17.444,59.614,17.444
	c71.521,0,110.601-59.223,110.601-110.586c0-1.698-0.04-3.365-0.102-5.048C141.962,33.34,148.558,26.494,153.791,18.684z"/>
</svg>
