<?xml version="1.0" encoding="utf-8"?>
<!-- Generator: Adobe Illustrator 16.0.0, SVG Export Plug-In . SVG Version: 6.00 Build 0)  -->
<!DOCTYPE svg PUBLIC "-//W3C//DTD SVG 1.1//EN" "http://www.w3.org/Graphics/SVG/1.1/DTD/svg11.dtd">
<svg version="1.1" id="Layer_1" xmlns="http://www.w3.org/2000/svg" xmlns:xlink="http://www.w3.org/1999/xlink" x="0px" y="0px"
	 width="582px" height="178px" viewBox="0 0 582 178" enable-background="new 0 0 582 178" xml:space="preserve">
<g>
	<g>
		<path fill="#C6C6C5" d="M184.222,76.955v10.447h-4.955V61.759h9.639c3.297,0,5.242,0.803,6.674,2.302
			c1.285,1.318,2.012,3.3,2.012,5.315c0,2.012-0.727,3.995-2.012,5.31c-1.397,1.476-3.377,2.27-6.674,2.27H184.222z M188.689,72.568
			c1.683,0,2.53-0.41,3.111-1.033c0.552-0.584,0.841-1.318,0.841-2.159c0-0.848-0.289-1.62-0.841-2.192
			c-0.581-0.627-1.429-1.033-3.111-1.033h-4.468v6.418H188.689z"/>
		<path fill="#C6C6C5" d="M222.704,75.863h-12.83v11.539h-4.94V61.759h4.94v9.705h12.83v-9.705h4.947v25.644h-4.947V75.863z"/>
		<path fill="#C6C6C5" d="M234.259,87.402l10.997-25.644h3.475l11.005,25.644h-5.173l-2.417-5.681h-10.3l-2.42,5.681H234.259z
			 M243.715,77.323h6.522l-3.264-7.584L243.715,77.323z"/>
		<path fill="#C6C6C5" d="M271.279,76.047v11.355h-4.941V61.759h9.345c2.632,0,4.318,0.727,5.604,1.901
			c1.387,1.321,2.271,3.191,2.271,5.236c0,2.055-0.885,3.934-2.271,5.242c-0.701,0.662-1.541,1.175-2.571,1.501l9.604,11.763h-6.117
			l-9.124-11.355H271.279z M275.386,71.648c1.431,0,2.055-0.292,2.5-0.773c0.429-0.474,0.725-1.203,0.725-1.939
			c0-0.771-0.296-1.497-0.725-1.975c-0.445-0.479-1.069-0.811-2.5-0.811h-4.106v5.498H275.386z"/>
		<path fill="#C6C6C5" d="M307.394,77.102l9.34-15.343h3.482v25.644h-4.944V73.11l-6.165,10.073h-3.443l-6.158-10.073v14.292h-4.945
			V61.759h3.486L307.394,77.102z"/>
		<path fill="#C6C6C5" d="M326.817,87.402l11-25.644h3.476l11.001,25.644h-5.168l-2.423-5.681h-10.296l-2.424,5.681H326.817z
			 M336.282,77.323h6.518l-3.268-7.584L336.282,77.323z"/>
		<path fill="#C6C6C5" d="M376.681,66.15v5.313h7.873v4.399h-7.873v7.15h10.803v4.389h-15.756V61.759h15.392v4.392H376.681z"/>
		<path fill="#C6C6C5" d="M408.386,77.102l9.342-15.343h3.486v25.644h-4.944V73.11l-6.159,10.073h-3.447l-6.154-10.073v14.292
			h-4.949V61.759h3.488L408.386,77.102z"/>
		<path fill="#C6C6C5" d="M435.702,66.15v5.313h7.879v4.399h-7.879v7.15h10.807v4.389h-15.76V61.759h15.392v4.392H435.702z"/>
		<path fill="#C6C6C5" d="M459.528,76.047v11.355h-4.947V61.759h9.337c2.644,0,4.335,0.727,5.608,1.901
			c1.395,1.321,2.27,3.191,2.27,5.236c0,2.055-0.875,3.934-2.27,5.242c-0.693,0.662-1.533,1.175-2.559,1.501l9.592,11.763h-6.111
			l-9.129-11.355H459.528z M463.624,71.648c1.432,0,2.055-0.292,2.494-0.773c0.443-0.474,0.746-1.203,0.746-1.939
			c0-0.771-0.303-1.497-0.746-1.975c-0.439-0.479-1.062-0.811-2.494-0.811h-4.096v5.498H463.624z"/>
		<path fill="#C6C6C5" d="M484.456,74.578c0,4.987,3.812,8.798,8.752,8.798c2.352,0,4.261-0.802,5.726-1.98v-5.532h-6.593v-4.399
			h11.541v11.401c-2.271,2.889-6.084,4.91-10.778,4.91c-7.991,0-13.595-5.825-13.595-13.197c0-7.367,5.529-13.199,13.525-13.199
			c3.807,0,7.065,1.436,9.389,3.669l-3.199,3.375c-1.538-1.541-3.705-2.643-6.229-2.643
			C488.118,65.78,484.456,69.705,484.456,74.578z"/>
		<path fill="#C6C6C5" d="M512.68,61.759h4.96v25.644h-4.96V61.759z"/>
		<path fill="#C6C6C5" d="M527.171,61.759h3.482l14.289,16.712V61.759h4.944v25.644h-3.48l-14.291-16.721v16.721h-4.944V61.759z"/>
		<path fill="#C6C6C5" d="M562.54,74.578c0,4.987,3.807,8.798,8.76,8.798c2.348,0,4.248-0.802,5.711-1.98v-5.532h-6.59v-4.399
			h11.545v11.401c-2.272,2.889-6.09,4.91-10.777,4.91c-7.998,0-13.592-5.825-13.592-13.197c0-7.367,5.535-13.199,13.516-13.199
			c3.82,0,7.075,1.436,9.389,3.669l-3.192,3.375c-1.541-1.541-3.697-2.643-6.229-2.643C566.211,65.78,562.54,69.705,562.54,74.578z"
			/>
	</g>
	<g>
		<polygon opacity="0.8" fill="#76C6CA" points="36.737,133.573 0.041,154.956 0.041,26.217 36.737,39.253 		"/>
		<polygon opacity="0.8" fill="#124A62" points="36.737,111.204 0.041,98.165 44.033,72.008 80.735,85.102 		"/>
		<polygon opacity="0.8" fill="#124A62" points="44.033,0.06 80.735,13.096 36.737,39.253 0.041,26.16 		"/>
		<polygon opacity="0.8" fill="#124A62" points="36.731,177.94 0.034,164.903 44.036,139.247 80.729,152.755 		"/>
		<polygon opacity="0.9" fill="#689DBC" points="80.735,85.04 44.033,72.008 44.033,0.06 80.735,13.096 		"/>
	</g>
</g>
</svg>
