<?xml version="1.0" standalone="no"?>
<!DOCTYPE svg PUBLIC "-//W3C//DTD SVG 20010904//EN"
 "http://www.w3.org/TR/2001/REC-SVG-20010904/DTD/svg10.dtd">
<svg version="1.0" xmlns="http://www.w3.org/2000/svg"
 width="260.000000pt" height="260.000000pt" viewBox="0 0 260.000000 260.000000"
 preserveAspectRatio="xMidYMid meet">
<metadata>
Created by potrace 1.11, written by Peter Selinger 2001-2013
</metadata>
<g transform="translate(0.000000,260.000000) scale(0.100000,-0.100000)"
fill="#000000" stroke="none">
<path d="M1320 2568 c-13 -13 -25 -21 -25 -18 0 7 -219 -123 -223 -132 -2 -5
-9 -8 -15 -8 -7 0 -56 -27 -110 -60 -55 -33 -101 -60 -102 -60 -2 0 -33 -19
-69 -41 l-66 -41 0 -934 c0 -529 4 -934 9 -934 5 0 14 7 21 15 7 8 16 13 20
10 5 -3 11 -1 15 5 3 6 25 20 48 31 23 12 44 24 47 28 3 3 18 13 35 21 16 8
58 32 92 53 35 20 67 37 73 37 5 0 10 4 10 9 0 5 8 11 18 14 21 7 123 65 136
78 14 13 17 47 6 54 -6 4 -7 12 -3 18 10 16 11 209 1 223 -9 12 24 51 55 65
12 5 29 13 37 19 8 6 41 25 72 44 32 18 55 36 53 40 -3 3 -2 4 2 1 5 -4 111
51 123 64 3 3 25 17 50 30 25 13 52 30 60 37 8 7 26 17 40 23 14 6 39 20 55
31 17 11 39 24 50 30 59 28 55 -11 55 562 l0 526 -22 5 c-13 2 -81 26 -153 52
-225 81 -329 117 -350 122 -12 2 -30 -5 -45 -19z m35 -764 c0 -228 -2 -268
-15 -272 -8 -3 -26 -12 -40 -22 -48 -32 -57 -31 -55 6 2 19 -1 37 -6 40 -5 3
-6 10 -2 17 10 17 12 76 2 83 -5 3 -6 10 -3 16 10 16 12 138 2 144 -4 3 -3 14
2 25 8 14 7 19 -2 19 -10 0 -9 3 1 9 11 7 12 13 3 23 -6 8 -7 19 -2 28 5 8 5
21 -1 31 -5 11 -5 20 0 23 5 4 8 14 6 24 -1 11 15 28 49 49 27 17 53 30 56 28
3 -2 5 -124 5 -271z m15 -564 c0 -5 -2 -10 -4 -10 -3 0 -8 5 -11 10 -3 6 -1
10 4 10 6 0 11 -4 11 -10z m-600 -194 c0 -3 -4 -8 -10 -11 -5 -3 -10 -1 -10 4
0 6 5 11 10 11 6 0 10 -2 10 -4z"/>
<path d="M1215 483 c-142 -82 -177 -103 -230 -133 -19 -11 -74 -43 -123 -72
-48 -29 -100 -59 -115 -67 -15 -8 -27 -17 -27 -20 0 -11 280 -102 291 -95 8 4
9 3 5 -4 -4 -7 -5 -12 -3 -12 3 0 58 -19 123 -41 77 -27 120 -37 122 -30 2 6
8 11 13 11 11 0 337 183 356 199 7 6 14 11 17 11 3 0 60 31 126 69 104 59 118
70 98 76 -12 3 -32 10 -43 15 -31 14 -218 79 -235 82 -8 2 -17 5 -20 8 -7 8
-170 68 -200 74 -19 4 -57 -13 -155 -71z"/>
</g>
</svg>
