<?xml version="1.0" encoding="utf-8"?>
<!-- Generator: Adobe Illustrator 16.0.0, SVG Export Plug-In . SVG Version: 6.00 Build 0)  -->
<!DOCTYPE svg PUBLIC "-//W3C//DTD SVG 1.1//EN" "http://www.w3.org/Graphics/SVG/1.1/DTD/svg11.dtd">
<svg version="1.1" id="Layer_1" xmlns="http://www.w3.org/2000/svg" xmlns:xlink="http://www.w3.org/1999/xlink" x="0px" y="0px"
	 width="177px" height="177px" viewBox="0 0 177 177" enable-background="new 0 0 177 177" xml:space="preserve">
<path opacity="0.8" fill="#76C6CA" d="M88.499,0.131c-48.763,0-88.433,39.67-88.433,88.434C0.066,137.33,39.736,177,88.499,177
	c48.764,0,88.435-39.67,88.435-88.436C176.934,39.801,137.263,0.131,88.499,0.131z M8.054,84.621
	c0.822-16.976,6.937-32.578,16.709-45.218C33.058,43.675,57.25,54.52,89.071,54.52c18.921,0,40.539-3.858,63.109-15.19
	c9.805,12.654,15.941,28.282,16.766,45.291H8.054z M168.946,92.508c-0.816,16.846-6.84,32.342-16.481,44.93
	c-12.835-6.662-66.886-30.652-127.858,0.092c-9.682-12.605-15.734-28.133-16.553-45.021H168.946z M88.499,8.018
	c22.953,0,43.678,9.668,58.364,25.123C92.44,59.531,44.299,40.251,30.042,33.241C44.731,17.725,65.497,8.018,88.499,8.018z
	 M88.499,169.111c-23.089,0-43.925-9.781-58.625-25.398c54.895-26.762,103.428-7.002,117.348-0.102
	C132.517,159.291,111.64,169.111,88.499,169.111z"/>
</svg>
