<?xml version="1.0" encoding="utf-8"?>
<!-- Generator: Adobe Illustrator 16.0.0, SVG Export Plug-In . SVG Version: 6.00 Build 0)  -->
<!DOCTYPE svg PUBLIC "-//W3C//DTD SVG 1.1//EN" "http://www.w3.org/Graphics/SVG/1.1/DTD/svg11.dtd">
<svg version="1.1" id="Layer_1" xmlns="http://www.w3.org/2000/svg" xmlns:xlink="http://www.w3.org/1999/xlink" x="0px" y="0px"
	 width="162px" height="193px" viewBox="0 0 162 193" enable-background="new 0 0 162 193" xml:space="preserve">
<g opacity="0.8">
	<g>
		<path fill="#76C6CA" d="M47.192,57.765c15.902,0,28.84-12.938,28.84-28.84s-12.938-28.84-28.84-28.84
			c-15.901,0-28.84,12.938-28.84,28.84S31.291,57.765,47.192,57.765z M47.192,8.042c11.516,0,20.884,9.368,20.884,20.883
			c0,11.518-9.368,20.885-20.884,20.885s-20.884-9.367-20.884-20.885C26.308,17.41,35.676,8.042,47.192,8.042z"/>
		<path fill="#76C6CA" d="M114.809,57.765c15.902,0,28.84-12.938,28.84-28.84s-12.938-28.84-28.84-28.84s-28.84,12.938-28.84,28.84
			S98.906,57.765,114.809,57.765z M114.809,8.042c11.516,0,20.883,9.368,20.883,20.883c0,11.518-9.367,20.885-20.883,20.885
			s-20.885-9.367-20.885-20.885C93.924,17.41,103.293,8.042,114.809,8.042z"/>
		<path fill="#76C6CA" d="M114.809,71.288c-13.289,0-25.291,5.585-33.808,14.521c-8.517-8.937-20.52-14.521-33.809-14.521
			c-25.768,0-46.732,20.965-46.732,46.734v70.914c0,2.197,1.781,3.979,3.978,3.979h67.616h17.894h67.615
			c2.197,0,3.979-1.781,3.979-3.979v-70.914C161.541,92.253,140.578,71.288,114.809,71.288z M8.416,118.022
			c0-21.383,17.395-38.777,38.776-38.777c11.411,0,21.653,4.985,28.755,12.854c-4.967,7.424-7.871,16.34-7.871,25.924v66.938H8.416
			V118.022z M76.032,184.96v-66.938c0-6.877,1.818-13.326,4.969-18.932c3.152,5.605,4.968,12.055,4.968,18.932v66.938H76.032z
			 M153.584,184.96h-59.66v-66.938c0-9.584-2.902-18.5-7.869-25.924c7.102-7.868,17.344-12.854,28.754-12.854
			c21.381,0,38.775,17.395,38.775,38.777V184.96z"/>
	</g>
</g>
</svg>
