<?xml version="1.0" encoding="utf-8"?>
<!-- Generator: Adobe Illustrator 16.0.0, SVG Export Plug-In . SVG Version: 6.00 Build 0)  -->
<!DOCTYPE svg PUBLIC "-//W3C//DTD SVG 1.1//EN" "http://www.w3.org/Graphics/SVG/1.1/DTD/svg11.dtd">
<svg version="1.1" id="Layer_1" xmlns="http://www.w3.org/2000/svg" xmlns:xlink="http://www.w3.org/1999/xlink" x="0px" y="0px"
	 width="145px" height="191px" viewBox="0 0 145 191" enable-background="new 0 0 145 191" xml:space="preserve">
<g opacity="0.8">
	<g>
		<path fill="#76C6CA" d="M141.09,12.274h-35.018V4.671c0-2.133-1.729-3.862-3.861-3.862H42.057c-2.134,0-3.862,1.729-3.862,3.862
			v7.604H3.911c-2.134,0-3.862,1.729-3.862,3.862v171c0,2.133,1.729,3.863,3.862,3.863H141.09c2.131,0,3.861-1.73,3.861-3.863v-171
			C144.951,14.004,143.221,12.274,141.09,12.274z M45.918,8.534h52.43v3.74h-52.43V8.534z M45.918,19.999h52.43v3.479h-52.43V19.999
			z M137.227,183.277H7.772V19.999h30.422v7.341c0,2.131,1.729,3.86,3.862,3.86h60.154c2.133,0,3.861-1.729,3.861-3.86v-7.341
			h31.154V183.277z"/>
		<path fill="#76C6CA" d="M42.057,41.986h-19.44c-2.133,0-3.861,1.729-3.861,3.862v19.073c0,2.133,1.729,3.86,3.861,3.86h19.44
			c2.132,0,3.861-1.728,3.861-3.86V45.849C45.918,43.716,44.188,41.986,42.057,41.986z M38.194,61.06H26.478V49.709h11.716V61.06z"
			/>
		<path fill="#76C6CA" d="M42.057,93.256h-19.44c-2.133,0-3.861,1.729-3.861,3.863v19.075c0,2.133,1.729,3.86,3.861,3.86h19.44
			c2.132,0,3.861-1.728,3.861-3.86V97.119C45.918,94.985,44.188,93.256,42.057,93.256z M38.194,112.332H26.478V100.98h11.716
			V112.332z"/>
		<path fill="#76C6CA" d="M42.057,142.041h-19.44c-2.133,0-3.861,1.728-3.861,3.86v19.073c0,2.133,1.729,3.863,3.861,3.863h19.44
			c2.132,0,3.861-1.73,3.861-3.863v-19.073C45.918,143.769,44.188,142.041,42.057,142.041z M38.194,161.115H26.478v-11.352h11.716
			V161.115z"/>
	</g>
</g>
</svg>
