<?xml version="1.0" encoding="utf-8"?>
<!-- Generator: Adobe Illustrator 16.0.0, SVG Export Plug-In . SVG Version: 6.00 Build 0)  -->
<!DOCTYPE svg PUBLIC "-//W3C//DTD SVG 1.1//EN" "http://www.w3.org/Graphics/SVG/1.1/DTD/svg11.dtd">
<svg version="1.1" id="Layer_1" xmlns="http://www.w3.org/2000/svg" xmlns:xlink="http://www.w3.org/1999/xlink" x="0px" y="0px"
	 width="136px" height="168px" viewBox="0 0 136 168" enable-background="new 0 0 136 168" xml:space="preserve">
<g opacity="0.8">
	<g>
		<path fill="#76C6CA" d="M135.878,5.602c-0.006-0.126-0.019-0.251-0.037-0.377c-0.017-0.11-0.035-0.218-0.062-0.323
			c-0.027-0.115-0.065-0.225-0.104-0.338c-0.039-0.105-0.078-0.211-0.126-0.312c-0.049-0.105-0.106-0.206-0.166-0.307
			c-0.059-0.098-0.118-0.194-0.186-0.288c-0.066-0.089-0.141-0.176-0.217-0.26c-0.082-0.091-0.166-0.181-0.258-0.265
			c-0.04-0.035-0.069-0.078-0.11-0.11c-0.044-0.038-0.095-0.061-0.141-0.096c-0.102-0.075-0.206-0.145-0.314-0.213
			c-0.094-0.056-0.188-0.107-0.285-0.152c-0.11-0.054-0.222-0.098-0.336-0.141c-0.107-0.037-0.213-0.072-0.32-0.098
			c-0.113-0.031-0.228-0.052-0.344-0.07c-0.119-0.019-0.236-0.031-0.357-0.035c-0.06-0.002-0.117-0.019-0.178-0.019H84.254
			c-1.965,0-3.556,1.592-3.556,3.556s1.591,3.558,3.556,3.558h39.479L64.095,68.564c-1.258,1.509-1.055,3.755,0.455,5.011
			c0.664,0.553,1.472,0.825,2.275,0.825c1.019,0,2.03-0.436,2.733-1.277l59.223-58.845v38.114c0,1.964,1.592,3.556,3.557,3.556
			c1.963,0,3.556-1.592,3.556-3.556V5.751C135.894,5.7,135.881,5.653,135.878,5.602z"/>
		<path fill="#76C6CA" d="M129.99,160.89H7.22V4.19c0-1.964-1.593-3.555-3.557-3.555c-1.965,0-3.557,1.591-3.557,3.555v160.254
			c0,1.965,1.592,3.556,3.557,3.556H129.99c1.965,0,3.557-1.591,3.557-3.556C133.547,162.48,131.955,160.89,129.99,160.89z"/>
	</g>
</g>
</svg>
